HIERARCHY
ROOT Hips
{
OFFSET 0.00 0.00 0.00
CHANNELS 6 Xposition Yposition Zposition Zrotation Xrotation Yrotation
JOINT Spine
{
OFFSET 0.00 10.00 0.00
CHANNELS 3 Zrotation Xrotation Yrotation
JOINT Spine1
{
OFFSET 0.00 10.00 0.00
CHANNELS 3 Zrotation Xrotation Yrotation
JOINT Neck
{
OFFSET 0.00 10.00 0.00
CHANNELS 3 Zrotation Xrotation Yrotation
JOINT Head
{
OFFSET 0.00 5.00 0.00
CHANNELS 3 Zrotation Xrotation Yrotation
End Site
{
OFFSET 0.00 5.00 0.00
}
}
}
JOINT LeftShoulder
{
OFFSET 5.00 8.00 0.00
CHANNELS 3 Zrotation Xrotation Yrotation
JOINT LeftArm
{
OFFSET 10.00 0.00 0.00
CHANNELS 3 Zrotation Xrotation Yrotation
JOINT LeftForeArm
{
OFFSET 10.00 0.00 0.00
CHANNELS 3 Zrotation Xrotation Yrotation
JOINT LeftHand
{
OFFSET 8.00 0.00 0.00
CHANNELS 3 Zrotation Xrotation Yrotation
End Site
{
OFFSET 4.00 0.00 0.00
}
}
}
}
}
JOINT RightShoulder
{
OFFSET -5.00 8.00 0.00
CHANNELS 3 Zrotation Xrotation Yrotation
JOINT RightArm
{
OFFSET -10.00 0.00 0.00
CHANNELS 3 Zrotation Xrotation Yrotation
JOINT RightForeArm
{
OFFSET -10.00 0.00 0.00
CHANNELS 3 Zrotation Xrotation Yrotation
JOINT RightHand
{
OFFSET -8.00 0.00 0.00
CHANNELS 3 Zrotation Xrotation Yrotation
End Site
{
OFFSET -4.00 0.00 0.00
}
}
}
}
}
}
}
JOINT LeftUpLeg
{
OFFSET 5.00 0.00 0.00
CHANNELS 3 Zrotation Xrotation Yrotation
JOINT LeftLeg
{
OFFSET 0.00 -20.00 0.00
CHANNELS 3 Zrotation Xrotation Yrotation
JOINT LeftFoot
{
OFFSET 0.00 -20.00 0.00
CHANNELS 3 Zrotation Xrotation Yrotation
End Site
{
OFFSET 0.00 -2.00 5.00
}
}
}
}
JOINT RightUpLeg
{
OFFSET -5.00 0.00 0.00
CHANNELS 3 Zrotation Xrotation Yrotation
JOINT RightLeg
{
OFFSET 0.00 -20.00 0.00
CHANNELS 3 Zrotation Xrotation Yrotation
JOINT RightFoot
{
OFFSET 0.00 -20.00 0.00
CHANNELS 3 Zrotation Xrotation Yrotation
End Site
{
OFFSET 0.00 -2.00 5.00
}
}
}
}
}
MOTION
Frames: 30
Frame Time: 0.033333
0.00 90.00 0.00 0.00 0.00 0.00 -0.00 0.00 0.00 -0.00 0.00 0.00 0.00 0.00 0.00 0.00 0.00 0.00 0.00 0.00 0.00 0.00 -30.00 0.00 0.00 -20.00 0.00 0.00 0.00 0.00 -0.00 0.00 0.00 0.00 -30.00 0.00 0.00 -20.00 0.00 0.00 0.00 0.00 0.00 0.00 0.00 0.00 21.57 0.00 0.00 0.00 0.00 0.00 -0.00 0.00 0.00 21.57 0.00 0.00 -0.00 0.00
0.50 91.49 0.81 1.22 0.00 0.00 -0.81 0.00 0.00 -0.81 0.00 0.00 0.41 0.00 0.00 0.00 0.00 0.00 4.07 0.00 0.00 0.00 -21.87 0.00 0.00 -20.00 0.00 0.00 0.00 0.00 -4.07 0.00 0.00 0.00 -38.13 0.00 0.00 -20.00 0.00 0.00 0.00 0.00 0.00 12.20 0.00 0.00 35.77 0.00 0.00 4.07 0.00 0.00 -12.20 0.00 0.00 3.65 0.00 0.00 -4.07 0.00
1.00 91.99 1.49 2.23 0.00 0.00 -1.49 0.00 0.00 -1.49 0.00 0.00 0.74 0.00 0.00 0.00 0.00 0.00 7.43 0.00 0.00 0.00 -15.14 0.00 0.00 -20.00 0.00 0.00 0.00 0.00 -7.43 0.00 0.00 0.00 -44.86 0.00 0.00 -20.00 0.00 0.00 0.00 0.00 0.00 22.29 0.00 0.00 43.78 0.00 0.00 7.43 0.00 0.00 -22.29 0.00 0.00 0.00 0.00 0.00 -7.43 0.00
1.50 91.18 1.90 2.85 0.00 0.00 -1.90 0.00 0.00 -1.90 0.00 0.00 0.95 0.00 0.00 0.00 0.00 0.00 9.51 0.00 0.00 0.00 -10.98 0.00 0.00 -20.00 0.00 0.00 0.00 0.00 -9.51 0.00 0.00 0.00 -49.02 0.00 0.00 -20.00 0.00 0.00 0.00 0.00 0.00 28.53 0.00 0.00 44.23 0.00 0.00 9.51 0.00 0.00 -28.53 0.00 0.00 0.00 0.00 0.00 -9.51 0.00
2.00 89.58 1.99 2.98 0.00 0.00 -1.99 0.00 0.00 -1.99 0.00 0.00 0.99 0.00 0.00 0.00 0.00 0.00 9.95 0.00 0.00 0.00 -10.11 0.00 0.00 -20.00 0.00 0.00 0.00 0.00 -9.95 0.00 0.00 0.00 -49.89 0.00 0.00 -20.00 0.00 0.00 0.00 0.00 0.00 29.84 0.00 0.00 37.02 0.00 0.00 9.95 0.00 0.00 -29.84 0.00 0.00 0.00 0.00 0.00 -9.95 0.00
2.50 88.27 1.73 2.60 0.00 0.00 -1.73 0.00 0.00 -1.73 0.00 0.00 0.87 0.00 0.00 0.00 0.00 0.00 8.66 0.00 0.00 0.00 -12.68 0.00 0.00 -20.00 0.00 0.00 0.00 0.00 -8.66 0.00 0.00 0.00 -47.32 0.00 0.00 -20.00 0.00 0.00 0.00 0.00 0.00 25.98 0.00 0.00 23.41 0.00 0.00 8.66 0.00 0.00 -25.98 0.00 0.00 0.00 0.00 0.00 -8.66 0.00
3.00 88.10 1.18 1.76 0.00 0.00 -1.18 0.00 0.00 -1.18 0.00 0.00 0.59 0.00 0.00 0.00 0.00 0.00 5.88 0.00 0.00 0.00 -18.24 0.00 0.00 -20.00 0.00 0.00 0.00 0.00 -5.88 0.00 0.00 0.00 -41.76 0.00 0.00 -20.00 0.00 0.00 0.00 0.00 0.00 17.63 0.00 0.00 5.76 0.00 0.00 5.88 0.00 0.00 -17.63 0.00 0.00 0.00 0.00 0.00 -5.88 0.00
3.50 89.19 0.42 0.62 0.00 0.00 -0.42 0.00 0.00 -0.42 0.00 0.00 0.21 0.00 0.00 0.00 0.00 0.00 2.08 0.00 0.00 0.00 -25.84 0.00 0.00 -20.00 0.00 0.00 0.00 0.00 -2.08 0.00 0.00 0.00 -34.16 0.00 0.00 -20.00 0.00 0.00 0.00 0.00 0.00 6.24 0.00 0.00 0.00 0.00 0.00 2.08 0.00 0.00 -6.24 0.00 0.00 0.00 0.00 0.00 -2.08 0.00
4.00 90.81 -0.42 -0.62 0.00 0.00 0.42 0.00 0.00 0.42 0.00 0.00 -0.21 0.00 0.00 0.00 0.00 0.00 -2.08 0.00 0.00 0.00 -34.16 0.00 0.00 -20.00 0.00 0.00 0.00 0.00 2.08 0.00 0.00 0.00 -25.84 0.00 0.00 -20.00 0.00 0.00 0.00 0.00 0.00 -6.24 0.00 0.00 0.00 0.00 0.00 -2.08 0.00 0.00 6.24 0.00 0.00 0.00 0.00 0.00 2.08 0.00
4.50 91.90 -1.18 -1.76 0.00 0.00 1.18 0.00 0.00 1.18 0.00 0.00 -0.59 0.00 0.00 0.00 0.00 0.00 -5.88 0.00 0.00 0.00 -41.76 0.00 0.00 -20.00 0.00 0.00 0.00 0.00 5.88 0.00 0.00 0.00 -18.24 0.00 0.00 -20.00 0.00 0.00 0.00 0.00 0.00 -17.63 0.00 0.00 0.00 0.00 0.00 -5.88 0.00 0.00 17.63 0.00 0.00 5.76 0.00 0.00 5.88 0.00
5.00 91.73 -1.73 -2.60 0.00 0.00 1.73 0.00 0.00 1.73 0.00 0.00 -0.87 0.00 0.00 0.00 0.00 0.00 -8.66 0.00 0.00 0.00 -47.32 0.00 0.00 -20.00 0.00 0.00 0.00 0.00 8.66 0.00 0.00 0.00 -12.68 0.00 0.00 -20.00 0.00 0.00 0.00 0.00 0.00 -25.98 0.00 0.00 0.00 0.00 0.00 -8.66 0.00 0.00 25.98 0.00 0.00 23.41 0.00 0.00 8.66 0.00
5.50 90.42 -1.99 -2.98 0.00 0.00 1.99 0.00 0.00 1.99 0.00 0.00 -0.99 0.00 0.00 0.00 0.00 0.00 -9.95 0.00 0.00 0.00 -49.89 0.00 0.00 -20.00 0.00 0.00 0.00 0.00 9.95 0.00 0.00 0.00 -10.11 0.00 0.00 -20.00 0.00 0.00 0.00 0.00 0.00 -29.84 0.00 0.00 0.00 0.00 0.00 -9.95 0.00 0.00 29.84 0.00 0.00 37.02 0.00 0.00 9.95 0.00
6.00 88.82 -1.90 -2.85 0.00 0.00 1.90 0.00 0.00 1.90 0.00 0.00 -0.95 0.00 0.00 0.00 0.00 0.00 -9.51 0.00 0.00 0.00 -49.02 0.00 0.00 -20.00 0.00 0.00 0.00 0.00 9.51 0.00 0.00 0.00 -10.98 0.00 0.00 -20.00 0.00 0.00 0.00 0.00 0.00 -28.53 0.00 0.00 0.00 0.00 0.00 -9.51 0.00 0.00 28.53 0.00 0.00 44.23 0.00 0.00 9.51 0.00
6.50 88.01 -1.49 -2.23 0.00 0.00 1.49 0.00 0.00 1.49 0.00 0.00 -0.74 0.00 0.00 0.00 0.00 0.00 -7.43 0.00 0.00 0.00 -44.86 0.00 0.00 -20.00 0.00 0.00 0.00 0.00 7.43 0.00 0.00 0.00 -15.14 0.00 0.00 -20.00 0.00 0.00 0.00 0.00 0.00 -22.29 0.00 0.00 0.00 0.00 0.00 -7.43 0.00 0.00 22.29 0.00 0.00 43.78 0.00 0.00 7.43 0.00
7.00 88.51 -0.81 -1.22 0.00 0.00 0.81 0.00 0.00 0.81 0.00 0.00 -0.41 0.00 0.00 0.00 0.00 0.00 -4.07 0.00 0.00 0.00 -38.13 0.00 0.00 -20.00 0.00 0.00 0.00 0.00 4.07 0.00 0.00 0.00 -21.87 0.00 0.00 -20.00 0.00 0.00 0.00 0.00 0.00 -12.20 0.00 0.00 3.65 0.00 0.00 -4.07 0.00 0.00 12.20 0.00 0.00 35.77 0.00 0.00 4.07 0.00
7.50 90.00 -0.00 -0.00 0.00 0.00 0.00 0.00 0.00 0.00 0.00 0.00 -0.00 0.00 0.00 0.00 0.00 0.00 -0.00 0.00 0.00 0.00 -30.00 0.00 0.00 -20.00 0.00 0.00 0.00 0.00 0.00 0.00 0.00 0.00 -30.00 0.00 0.00 -20.00 0.00 0.00 0.00 0.00 0.00 -0.00 0.00 0.00 21.57 0.00 0.00 -0.00 0.00 0.00 0.00 0.00 0.00 21.57 0.00 0.00 0.00 0.00
8.00 91.49 0.81 1.22 0.00 0.00 -0.81 0.00 0.00 -0.81 0.00 0.00 0.41 0.00 0.00 0.00 0.00 0.00 4.07 0.00 0.00 0.00 -21.87 0.00 0.00 -20.00 0.00 0.00 0.00 0.00 -4.07 0.00 0.00 0.00 -38.13 0.00 0.00 -20.00 0.00 0.00 0.00 0.00 0.00 12.20 0.00 0.00 35.77 0.00 0.00 4.07 0.00 0.00 -12.20 0.00 0.00 3.65 0.00 0.00 -4.07 0.00
8.50 91.99 1.49 2.23 0.00 0.00 -1.49 0.00 0.00 -1.49 0.00 0.00 0.74 0.00 0.00 0.00 0.00 0.00 7.43 0.00 0.00 0.00 -15.14 0.00 0.00 -20.00 0.00 0.00 0.00 0.00 -7.43 0.00 0.00 0.00 -44.86 0.00 0.00 -20.00 0.00 0.00 0.00 0.00 0.00 22.29 0.00 0.00 43.78 0.00 0.00 7.43 0.00 0.00 -22.29 0.00 0.00 0.00 0.00 0.00 -7.43 0.00
9.00 91.18 1.90 2.85 0.00 0.00 -1.90 0.00 0.00 -1.90 0.00 0.00 0.95 0.00 0.00 0.00 0.00 0.00 9.51 0.00 0.00 0.00 -10.98 0.00 0.00 -20.00 0.00 0.00 0.00 0.00 -9.51 0.00 0.00 0.00 -49.02 0.00 0.00 -20.00 0.00 0.00 0.00 0.00 0.00 28.53 0.00 0.00 44.23 0.00 0.00 9.51 0.00 0.00 -28.53 0.00 0.00 0.00 0.00 0.00 -9.51 0.00
9.50 89.58 1.99 2.98 0.00 0.00 -1.99 0.00 0.00 -1.99 0.00 0.00 0.99 0.00 0.00 0.00 0.00 0.00 9.95 0.00 0.00 0.00 -10.11 0.00 0.00 -20.00 0.00 0.00 0.00 0.00 -9.95 0.00 0.00 0.00 -49.89 0.00 0.00 -20.00 0.00 0.00 0.00 0.00 0.00 29.84 0.00 0.00 37.02 0.00 0.00 9.95 0.00 0.00 -29.84 0.00 0.00 0.00 0.00 0.00 -9.95 0.00
10.00 88.27 1.73 2.60 0.00 0.00 -1.73 0.00 0.00 -1.73 0.00 0.00 0.87 0.00 0.00 0.00 0.00 0.00 8.66 0.00 0.00 0.00 -12.68 0.00 0.00 -20.00 0.00 0.00 0.00 0.00 -8.66 0.00 0.00 0.00 -47.32 0.00 0.00 -20.00 0.00 0.00 0.00 0.00 0.00 25.98 0.00 0.00 23.41 0.00 0.00 8.66 0.00 0.00 -25.98 0.00 0.00 0.00 0.00 0.00 -8.66 0.00
10.50 88.10 1.18 1.76 0.00 0.00 -1.18 0.00 0.00 -1.18 0.00 0.00 0.59 0.00 0.00 0.00 0.00 0.00 5.88 0.00 0.00 0.00 -18.24 0.00 0.00 -20.00 0.00 0.00 0.00 0.00 -5.88 0.00 0.00 0.00 -41.76 0.00 0.00 -20.00 0.00 0.00 0.00 0.00 0.00 17.63 0.00 0.00 5.76 0.00 0.00 5.88 0.00 0.00 -17.63 0.00 0.00 0.00 0.00 0.00 -5.88 0.00
11.00 89.19 0.42 0.62 0.00 0.00 -0.42 0.00 0.00 -0.42 0.00 0.00 0.21 0.00 0.00 0.00 0.00 0.00 2.08 0.00 0.00 0.00 -25.84 0.00 0.00 -20.00 0.00 0.00 0.00 0.00 -2.08 0.00 0.00 0.00 -34.16 0.00 0.00 -20.00 0.00 0.00 0.00 0.00 0.00 6.24 0.00 0.00 0.00 0.00 0.00 2.08 0.00 0.00 -6.24 0.00 0.00 0.00 0.00 0.00 -2.08 0.00
11.50 90.81 -0.42 -0.62 0.00 0.00 0.42 0.00 0.00 0.42 0.00 0.00 -0.21 0.00 0.00 0.00 0.00 0.00 -2.08 0.00 0.00 0.00 -34.16 0.00 0.00 -20.00 0.00 0.00 0.00 0.00 2.08 0.00 0.00 0.00 -25.84 0.00 0.00 -20.00 0.00 0.00 0.00 0.00 0.00 -6.24 0.00 0.00 0.00 0.00 0.00 -2.08 0.00 0.00 6.24 0.00 0.00 0.00 0.00 0.00 2.08 0.00
12.00 91.90 -1.18 -1.76 0.00 0.00 1.18 0.00 0.00 1.18 0.00 0.00 -0.59 0.00 0.00 0.00 0.00 0.00 -5.88 0.00 0.00 0.00 -41.76 0.00 0.00 -20.00 0.00 0.00 0.00 0.00 5.88 0.00 0.00 0.00 -18.24 0.00 0.00 -20.00 0.00 0.00 0.00 0.00 0.00 -17.63 0.00 0.00 0.00 0.00 0.00 -5.88 0.00 0.00 17.63 0.00 0.00 5.76 0.00 0.00 5.88 0.00
12.50 91.73 -1.73 -2.60 0.00 0.00 1.73 0.00 0.00 1.73 0.00 0.00 -0.87 0.00 0.00 0.00 0.00 0.00 -8.66 0.00 0.00 0.00 -47.32 0.00 0.00 -20.00 0.00 0.00 0.00 0.00 8.66 0.00 0.00 0.00 -12.68 0.00 0.00 -20.00 0.00 0.00 0.00 0.00 0.00 -25.98 0.00 0.00 0.00 0.00 0.00 -8.66 0.00 0.00 25.98 0.00 0.00 23.41 0.00 0.00 8.66 0.00
13.00 90.42 -1.99 -2.98 0.00 0.00 1.99 0.00 0.00 1.99 0.00 0.00 -0.99 0.00 0.00 0.00 0.00 0.00 -9.95 0.00 0.00 0.00 -49.89 0.00 0.00 -20.00 0.00 0.00 0.00 0.00 9.95 0.00 0.00 0.00 -10.11 0.00 0.00 -20.00 0.00 0.00 0.00 0.00 0.00 -29.84 0.00 0.00 0.00 0.00 0.00 -9.95 0.00 0.00 29.84 0.00 0.00 37.02 0.00 0.00 9.95 0.00
13.50 88.82 -1.90 -2.85 0.00 0.00 1.90 0.00 0.00 1.90 0.00 0.00 -0.95 0.00 0.00 0.00 0.00 0.00 -9.51 0.00 0.00 0.00 -49.02 0.00 0.00 -20.00 0.00 0.00 0.00 0.00 9.51 0.00 0.00 0.00 -10.98 0.00 0.00 -20.00 0.00 0.00 0.00 0.00 0.00 -28.53 0.00 0.00 0.00 0.00 0.00 -9.51 0.00 0.00 28.53 0.00 0.00 44.23 0.00 0.00 9.51 0.00
14.00 88.01 -1.49 -2.23 0.00 0.00 1.49 0.00 0.00 1.49 0.00 0.00 -0.74 0.00 0.00 0.00 0.00 0.00 -7.43 0.00 0.00 0.00 -44.86 0.00 0.00 -20.00 0.00 0.00 0.00 0.00 7.43 0.00 0.00 0.00 -15.14 0.00 0.00 -20.00 0.00 0.00 0.00 0.00 0.00 -22.29 0.00 0.00 0.00 0.00 0.00 -7.43 0.00 0.00 22.29 0.00 0.00 43.78 0.00 0.00 7.43 0.00
14.50 88.51 -0.81 -1.22 0.00 0.00 0.81 0.00 0.00 0.81 0.00 0.00 -0.41 0.00 0.00 0.00 0.00 0.00 -4.07 0.00 0.00 0.00 -38.13 0.00 0.00 -20.00 0.00 0.00 0.00 0.00 4.07 0.00 0.00 0.00 -21.87 0.00 0.00 -20.00 0.00 0.00 0.00 0.00 0.00 -12.20 0.00 0.00 3.65 0.00 0.00 -4.07 0.00 0.00 12.20 0.00 0.00 35.77 0.00 0.00 4.07 0.00
